%TF.GenerationSoftware,KiCad,Pcbnew,10.0.1*%
%TF.CreationDate,2026-09-21T23:00:09+05:30*%
%TF.ProjectId,flight_computer_interface,666c6967-6874-45f6-936f-6d7075746572,rev?*%
%TF.SameCoordinates,Original*%
%TF.FileFunction,Paste,Top*%
%TF.FilePolarity,Positive*%
%FSLAX46Y46*%
G04 Gerber Fmt 4.6, Leading zero omitted, Abs format (unit mm)*
G04 Created by KiCad (PCBNEW 10.0.1) date 2026-09-21 23:00:09*
%MOMM*%
%LPD*%
G01*
G04 APERTURE LIST*
G04 Aperture macros list*
%AMRoundRect*
0 Rectangle with rounded corners*
0 $1 Rounding radius*
0 $2 $3 $4 $5 $6 $7 $8 $9 X,Y pos of 4 corners*
0 Add a 4 corners polygon primitive as box body*
4,1,4,$2,$3,$4,$5,$6,$7,$8,$9,$2,$3,0*
0 Add four circle primitives for the rounded corners*
1,1,$1+$1,$2,$3*
1,1,$1+$1,$4,$5*
1,1,$1+$1,$6,$7*
1,1,$1+$1,$8,$9*
0 Add four rect primitives between the rounded corners*
20,1,$1+$1,$2,$3,$4,$5,0*
20,1,$1+$1,$4,$5,$6,$7,0*
20,1,$1+$1,$6,$7,$8,$9,0*
20,1,$1+$1,$8,$9,$2,$3,0*%
G04 Aperture macros list end*
%ADD10RoundRect,0.200000X-0.200000X-0.275000X0.200000X-0.275000X0.200000X0.275000X-0.200000X0.275000X0*%
%ADD11RoundRect,0.375000X-0.625000X-0.375000X0.625000X-0.375000X0.625000X0.375000X-0.625000X0.375000X0*%
%ADD12RoundRect,0.500000X-0.500000X-1.400000X0.500000X-1.400000X0.500000X1.400000X-0.500000X1.400000X0*%
%ADD13RoundRect,0.225000X0.225000X0.250000X-0.225000X0.250000X-0.225000X-0.250000X0.225000X-0.250000X0*%
%ADD14RoundRect,0.225000X-0.225000X-0.250000X0.225000X-0.250000X0.225000X0.250000X-0.225000X0.250000X0*%
%ADD15RoundRect,0.075000X-0.700000X-0.075000X0.700000X-0.075000X0.700000X0.075000X-0.700000X0.075000X0*%
%ADD16RoundRect,0.075000X-0.075000X-0.700000X0.075000X-0.700000X0.075000X0.700000X-0.075000X0.700000X0*%
%ADD17RoundRect,0.125000X0.537500X0.125000X-0.537500X0.125000X-0.537500X-0.125000X0.537500X-0.125000X0*%
%ADD18RoundRect,0.150000X-0.825000X-0.150000X0.825000X-0.150000X0.825000X0.150000X-0.825000X0.150000X0*%
%ADD19RoundRect,0.250000X-0.250000X-0.475000X0.250000X-0.475000X0.250000X0.475000X-0.250000X0.475000X0*%
G04 APERTURE END LIST*
D10*
%TO.C,R3*%
X126620000Y-85852000D03*
X128270000Y-85852000D03*
%TD*%
D11*
%TO.C,U2*%
X118414000Y-79234000D03*
X118414000Y-81534000D03*
D12*
X124714000Y-81534000D03*
D11*
X118414000Y-83834000D03*
%TD*%
D13*
%TO.C,C4*%
X135154000Y-96774000D03*
X133604000Y-96774000D03*
%TD*%
D14*
%TO.C,C3*%
X133578000Y-79756000D03*
X135128000Y-79756000D03*
%TD*%
D15*
%TO.C,U1*%
X131739000Y-84134000D03*
X131739000Y-84634000D03*
X131739000Y-85134000D03*
X131739000Y-85634000D03*
X131739000Y-86134000D03*
X131739000Y-86634000D03*
X131739000Y-87134000D03*
X131739000Y-87634000D03*
X131739000Y-88134000D03*
X131739000Y-88634000D03*
X131739000Y-89134000D03*
X131739000Y-89634000D03*
X131739000Y-90134000D03*
X131739000Y-90634000D03*
X131739000Y-91134000D03*
X131739000Y-91634000D03*
D16*
X133664000Y-93559000D03*
X134164000Y-93559000D03*
X134664000Y-93559000D03*
X135164000Y-93559000D03*
X135664000Y-93559000D03*
X136164000Y-93559000D03*
X136664000Y-93559000D03*
X137164000Y-93559000D03*
X137664000Y-93559000D03*
X138164000Y-93559000D03*
X138664000Y-93559000D03*
X139164000Y-93559000D03*
X139664000Y-93559000D03*
X140164000Y-93559000D03*
X140664000Y-93559000D03*
X141164000Y-93559000D03*
D15*
X143089000Y-91634000D03*
X143089000Y-91134000D03*
X143089000Y-90634000D03*
X143089000Y-90134000D03*
X143089000Y-89634000D03*
X143089000Y-89134000D03*
X143089000Y-88634000D03*
X143089000Y-88134000D03*
X143089000Y-87634000D03*
X143089000Y-87134000D03*
X143089000Y-86634000D03*
X143089000Y-86134000D03*
X143089000Y-85634000D03*
X143089000Y-85134000D03*
X143089000Y-84634000D03*
X143089000Y-84134000D03*
D16*
X141164000Y-82209000D03*
X140664000Y-82209000D03*
X140164000Y-82209000D03*
X139664000Y-82209000D03*
X139164000Y-82209000D03*
X138664000Y-82209000D03*
X138164000Y-82209000D03*
X137664000Y-82209000D03*
X137164000Y-82209000D03*
X136664000Y-82209000D03*
X136164000Y-82209000D03*
X135664000Y-82209000D03*
X135164000Y-82209000D03*
X134664000Y-82209000D03*
X134164000Y-82209000D03*
X133664000Y-82209000D03*
%TD*%
D17*
%TO.C,U4*%
X127370000Y-90297000D03*
X127370000Y-89647000D03*
X127370000Y-88997000D03*
X127370000Y-88347000D03*
X125095000Y-88347000D03*
X125095000Y-88997000D03*
X125095000Y-89647000D03*
X125095000Y-90297000D03*
%TD*%
D10*
%TO.C,R1*%
X139320000Y-80010000D03*
X140970000Y-80010000D03*
%TD*%
D18*
%TO.C,U3*%
X148401000Y-86360000D03*
X148401000Y-87630000D03*
X148401000Y-88900000D03*
X148401000Y-90170000D03*
X153351000Y-90170000D03*
X153351000Y-88900000D03*
X153351000Y-87630000D03*
X153351000Y-86360000D03*
%TD*%
D14*
%TO.C,C5*%
X126085000Y-93472000D03*
X127635000Y-93472000D03*
%TD*%
%TO.C,C6*%
X150355000Y-83820000D03*
X151905000Y-83820000D03*
%TD*%
D19*
%TO.C,C2*%
X127828000Y-82296000D03*
X129728000Y-82296000D03*
%TD*%
%TO.C,C1*%
X112842000Y-83566000D03*
X114742000Y-83566000D03*
%TD*%
M02*
