%TF.GenerationSoftware,KiCad,Pcbnew,10.0.1*%
%TF.CreationDate,2026-09-21T23:00:09+05:30*%
%TF.ProjectId,flight_computer_interface,666c6967-6874-45f6-936f-6d7075746572,rev?*%
%TF.SameCoordinates,Original*%
%TF.FileFunction,Copper,L2,Bot*%
%TF.FilePolarity,Positive*%
%FSLAX46Y46*%
G04 Gerber Fmt 4.6, Leading zero omitted, Abs format (unit mm)*
G04 Created by KiCad (PCBNEW 10.0.1) date 2026-09-21 23:00:09*
%MOMM*%
%LPD*%
G01*
G04 APERTURE LIST*
%TA.AperFunction,ComponentPad*%
%ADD10R,1.700000X1.700000*%
%TD*%
%TA.AperFunction,ComponentPad*%
%ADD11C,1.700000*%
%TD*%
%TA.AperFunction,ViaPad*%
%ADD12C,0.600000*%
%TD*%
G04 APERTURE END LIST*
D10*
%TO.P,J1,1,Pin_1_1*%
%TO.N,/+BATT*%
X108712000Y-85339000D03*
D11*
%TO.P,J1,2,Pin_2_2*%
%TO.N,GND*%
X108712000Y-87879000D03*
%TD*%
D10*
%TO.P,J2,1,Pin_1_1*%
%TO.N,Net-(J2-Pin_1)*%
X145923000Y-94234000D03*
D11*
%TO.P,J2,2,Pin_2_2*%
%TO.N,Net-(J2-Pin_2)*%
X148463000Y-94234000D03*
%TD*%
D10*
%TO.P,J3,1,Pin_1_1*%
%TO.N,Net-(J3-Pin_1)*%
X157353000Y-89408000D03*
D11*
%TO.P,J3,2,Pin_2_2*%
%TO.N,Net-(J3-Pin_2)*%
X157353000Y-86868000D03*
%TD*%
D12*
%TO.N,GND*%
X151892000Y-92456000D03*
X141886386Y-84777932D03*
X127508000Y-92710000D03*
X128246754Y-89647000D03*
X131826000Y-96266000D03*
X132886813Y-89588499D03*
X119888000Y-79248000D03*
X141732000Y-81026000D03*
X140716000Y-95250000D03*
X124055344Y-88498637D03*
X130048000Y-81026000D03*
X108712000Y-89662000D03*
%TD*%
%TA.AperFunction,Conductor*%
%TO.N,GND*%
G36*
X155626943Y-76700114D02*
G01*
X155634829Y-76700157D01*
X155636108Y-76700500D01*
X155699043Y-76700500D01*
X155699417Y-76700502D01*
X155705245Y-76700670D01*
X155919828Y-76711916D01*
X156041450Y-76718290D01*
X156054357Y-76719647D01*
X156199616Y-76742653D01*
X156383662Y-76771802D01*
X156396349Y-76774498D01*
X156718422Y-76860797D01*
X156730755Y-76864805D01*
X157042038Y-76984296D01*
X157053873Y-76989565D01*
X157350976Y-77140947D01*
X157362191Y-77147423D01*
X157641832Y-77329023D01*
X157652313Y-77336638D01*
X157840317Y-77488880D01*
X157911441Y-77546475D01*
X157921086Y-77555160D01*
X158156839Y-77790913D01*
X158165524Y-77800558D01*
X158375359Y-78059683D01*
X158382978Y-78070171D01*
X158564573Y-78349802D01*
X158571055Y-78361029D01*
X158679125Y-78573127D01*
X158722429Y-78658115D01*
X158727708Y-78669972D01*
X158847192Y-78981239D01*
X158851203Y-78993583D01*
X158937499Y-79315644D01*
X158940197Y-79328341D01*
X158992352Y-79657642D01*
X158993709Y-79670549D01*
X159011330Y-80006756D01*
X159011500Y-80013246D01*
X159011500Y-98241113D01*
X159009216Y-98264801D01*
X158958317Y-98526336D01*
X158955322Y-98538444D01*
X158869152Y-98824237D01*
X158864955Y-98835982D01*
X158750518Y-99111654D01*
X158745163Y-99122919D01*
X158603604Y-99385711D01*
X158597144Y-99396381D01*
X158429903Y-99643619D01*
X158422403Y-99653586D01*
X158231166Y-99882777D01*
X158222704Y-99891940D01*
X158009415Y-100100754D01*
X158000075Y-100109020D01*
X157766883Y-100295355D01*
X157756759Y-100302641D01*
X157506040Y-100464598D01*
X157495236Y-100470831D01*
X157229495Y-100606791D01*
X157218119Y-100611906D01*
X156940081Y-100720474D01*
X156928249Y-100724421D01*
X156697774Y-100788615D01*
X156663287Y-100793156D01*
X106946902Y-100305406D01*
X106932471Y-100304421D01*
X106903296Y-100300709D01*
X106903292Y-100300710D01*
X106882961Y-100303476D01*
X106880381Y-100303800D01*
X106872727Y-100304678D01*
X106844518Y-100304402D01*
X106819898Y-100310739D01*
X106811400Y-100311715D01*
X106810581Y-100311573D01*
X106807414Y-100312107D01*
X106520045Y-100335707D01*
X106506835Y-100336085D01*
X106194517Y-100328373D01*
X106181341Y-100327343D01*
X105871622Y-100286436D01*
X105858632Y-100284010D01*
X105555019Y-100210372D01*
X105542359Y-100206577D01*
X105248313Y-100101046D01*
X105236131Y-100095926D01*
X104954972Y-99959695D01*
X104943402Y-99953306D01*
X104838044Y-99887570D01*
X104678346Y-99787929D01*
X104667546Y-99780362D01*
X104421573Y-99587699D01*
X104411628Y-99579015D01*
X104187583Y-99361294D01*
X104178609Y-99351592D01*
X103996647Y-99132500D01*
X103979000Y-99111252D01*
X103971112Y-99100653D01*
X103912698Y-99012738D01*
X103798213Y-98840433D01*
X103791498Y-98829052D01*
X103711990Y-98676266D01*
X103647285Y-98551927D01*
X103641820Y-98539901D01*
X103628051Y-98504736D01*
X103527910Y-98248978D01*
X103523755Y-98236433D01*
X103500640Y-98151785D01*
X103441455Y-97935045D01*
X103438664Y-97922156D01*
X103388905Y-97613711D01*
X103387501Y-97600593D01*
X103370763Y-97286937D01*
X103370600Y-97278558D01*
X103372284Y-97160711D01*
X104575500Y-97160711D01*
X104575500Y-97403288D01*
X104607161Y-97643785D01*
X104669947Y-97878104D01*
X104693539Y-97935059D01*
X104762776Y-98102212D01*
X104884064Y-98312289D01*
X104884066Y-98312292D01*
X104884067Y-98312293D01*
X105031733Y-98504736D01*
X105031739Y-98504743D01*
X105203256Y-98676260D01*
X105203262Y-98676265D01*
X105395711Y-98823936D01*
X105605788Y-98945224D01*
X105829900Y-99038054D01*
X106064211Y-99100838D01*
X106190212Y-99117426D01*
X106304711Y-99132500D01*
X106304712Y-99132500D01*
X106547289Y-99132500D01*
X106620064Y-99122919D01*
X106787789Y-99100838D01*
X107022100Y-99038054D01*
X107246212Y-98945224D01*
X107456289Y-98823936D01*
X107648738Y-98676265D01*
X107820265Y-98504738D01*
X107967936Y-98312289D01*
X108089224Y-98102212D01*
X108182054Y-97878100D01*
X108238160Y-97668712D01*
X154105500Y-97668712D01*
X154105500Y-97911288D01*
X154137162Y-98151789D01*
X154161097Y-98241113D01*
X154199947Y-98386104D01*
X154290461Y-98604623D01*
X154292776Y-98610212D01*
X154414064Y-98820289D01*
X154414066Y-98820292D01*
X154414067Y-98820293D01*
X154561733Y-99012736D01*
X154561739Y-99012743D01*
X154733256Y-99184260D01*
X154733262Y-99184265D01*
X154925711Y-99331936D01*
X155135788Y-99453224D01*
X155359900Y-99546054D01*
X155594211Y-99608838D01*
X155774586Y-99632584D01*
X155834711Y-99640500D01*
X155834712Y-99640500D01*
X156077289Y-99640500D01*
X156125388Y-99634167D01*
X156317789Y-99608838D01*
X156552100Y-99546054D01*
X156776212Y-99453224D01*
X156986289Y-99331936D01*
X157178738Y-99184265D01*
X157350265Y-99012738D01*
X157497936Y-98820289D01*
X157619224Y-98610212D01*
X157712054Y-98386100D01*
X157774838Y-98151789D01*
X157806500Y-97911288D01*
X157806500Y-97668712D01*
X157803218Y-97643786D01*
X157797531Y-97600582D01*
X157774838Y-97428211D01*
X157712054Y-97193900D01*
X157619224Y-96969788D01*
X157497936Y-96759711D01*
X157350265Y-96567262D01*
X157350260Y-96567256D01*
X157178743Y-96395739D01*
X157178736Y-96395733D01*
X156986293Y-96248067D01*
X156986292Y-96248066D01*
X156986289Y-96248064D01*
X156776212Y-96126776D01*
X156776205Y-96126773D01*
X156552104Y-96033947D01*
X156317785Y-95971161D01*
X156077289Y-95939500D01*
X156077288Y-95939500D01*
X155834712Y-95939500D01*
X155834711Y-95939500D01*
X155594214Y-95971161D01*
X155359895Y-96033947D01*
X155135794Y-96126773D01*
X155135785Y-96126777D01*
X154925706Y-96248067D01*
X154733263Y-96395733D01*
X154733256Y-96395739D01*
X154561739Y-96567256D01*
X154561733Y-96567263D01*
X154414067Y-96759706D01*
X154292777Y-96969785D01*
X154292773Y-96969794D01*
X154199947Y-97193895D01*
X154137161Y-97428214D01*
X154108781Y-97643789D01*
X154105500Y-97668712D01*
X108238160Y-97668712D01*
X108244838Y-97643789D01*
X108276500Y-97403288D01*
X108276500Y-97160712D01*
X108275732Y-97154882D01*
X108268584Y-97100586D01*
X108244838Y-96920211D01*
X108182054Y-96685900D01*
X108089224Y-96461788D01*
X107967936Y-96251711D01*
X107820265Y-96059262D01*
X107820260Y-96059256D01*
X107648743Y-95887739D01*
X107648736Y-95887733D01*
X107456293Y-95740067D01*
X107456292Y-95740066D01*
X107456289Y-95740064D01*
X107246212Y-95618776D01*
X107246205Y-95618773D01*
X107022104Y-95525947D01*
X106787785Y-95463161D01*
X106547289Y-95431500D01*
X106547288Y-95431500D01*
X106304712Y-95431500D01*
X106304711Y-95431500D01*
X106064214Y-95463161D01*
X105829895Y-95525947D01*
X105605794Y-95618773D01*
X105605785Y-95618777D01*
X105395706Y-95740067D01*
X105203263Y-95887733D01*
X105203256Y-95887739D01*
X105031739Y-96059256D01*
X105031733Y-96059263D01*
X104884067Y-96251706D01*
X104762777Y-96461785D01*
X104762773Y-96461794D01*
X104669947Y-96685895D01*
X104607161Y-96920214D01*
X104575500Y-97160711D01*
X103372284Y-97160711D01*
X103372367Y-97154882D01*
X103388018Y-96059262D01*
X103426518Y-93364247D01*
X144872500Y-93364247D01*
X144872500Y-95103752D01*
X144884131Y-95162229D01*
X144884132Y-95162230D01*
X144928447Y-95228552D01*
X144994769Y-95272867D01*
X144994770Y-95272868D01*
X145053247Y-95284499D01*
X145053250Y-95284500D01*
X145053252Y-95284500D01*
X146792750Y-95284500D01*
X146792751Y-95284499D01*
X146807568Y-95281552D01*
X146851229Y-95272868D01*
X146851229Y-95272867D01*
X146851231Y-95272867D01*
X146917552Y-95228552D01*
X146961867Y-95162231D01*
X146961867Y-95162229D01*
X146961868Y-95162229D01*
X146973499Y-95103752D01*
X146973500Y-95103750D01*
X146973500Y-94130530D01*
X147412500Y-94130530D01*
X147412500Y-94337469D01*
X147452868Y-94540412D01*
X147452870Y-94540420D01*
X147532058Y-94731596D01*
X147647024Y-94903657D01*
X147793342Y-95049975D01*
X147793345Y-95049977D01*
X147965402Y-95164941D01*
X148156580Y-95244130D01*
X148301052Y-95272867D01*
X148359530Y-95284499D01*
X148359534Y-95284500D01*
X148359535Y-95284500D01*
X148566466Y-95284500D01*
X148566467Y-95284499D01*
X148769420Y-95244130D01*
X148960598Y-95164941D01*
X149132655Y-95049977D01*
X149278977Y-94903655D01*
X149393941Y-94731598D01*
X149473130Y-94540420D01*
X149513500Y-94337465D01*
X149513500Y-94130535D01*
X149473130Y-93927580D01*
X149393941Y-93736402D01*
X149278977Y-93564345D01*
X149278975Y-93564342D01*
X149132657Y-93418024D01*
X148964655Y-93305770D01*
X148960598Y-93303059D01*
X148769420Y-93223870D01*
X148769412Y-93223868D01*
X148566469Y-93183500D01*
X148566465Y-93183500D01*
X148359535Y-93183500D01*
X148359530Y-93183500D01*
X148156587Y-93223868D01*
X148156579Y-93223870D01*
X147965403Y-93303058D01*
X147793342Y-93418024D01*
X147647024Y-93564342D01*
X147532058Y-93736403D01*
X147452870Y-93927579D01*
X147452868Y-93927587D01*
X147412500Y-94130530D01*
X146973500Y-94130530D01*
X146973500Y-93364249D01*
X146973499Y-93364247D01*
X146961868Y-93305770D01*
X146961867Y-93305769D01*
X146917552Y-93239447D01*
X146851230Y-93195132D01*
X146851229Y-93195131D01*
X146792752Y-93183500D01*
X146792748Y-93183500D01*
X145053252Y-93183500D01*
X145053247Y-93183500D01*
X144994770Y-93195131D01*
X144994769Y-93195132D01*
X144928447Y-93239447D01*
X144884132Y-93305769D01*
X144884131Y-93305770D01*
X144872500Y-93364247D01*
X103426518Y-93364247D01*
X103506396Y-87772753D01*
X107362000Y-87772753D01*
X107362000Y-87985246D01*
X107395242Y-88195127D01*
X107395242Y-88195130D01*
X107460904Y-88397217D01*
X107557375Y-88586550D01*
X107596728Y-88640716D01*
X108229037Y-88008408D01*
X108246075Y-88071993D01*
X108311901Y-88186007D01*
X108404993Y-88279099D01*
X108519007Y-88344925D01*
X108582590Y-88361962D01*
X107950282Y-88994269D01*
X107950282Y-88994270D01*
X108004449Y-89033624D01*
X108193782Y-89130095D01*
X108395870Y-89195757D01*
X108605754Y-89229000D01*
X108818246Y-89229000D01*
X109028127Y-89195757D01*
X109028130Y-89195757D01*
X109230217Y-89130095D01*
X109419554Y-89033622D01*
X109473716Y-88994270D01*
X109473717Y-88994270D01*
X108841408Y-88361962D01*
X108904993Y-88344925D01*
X109019007Y-88279099D01*
X109112099Y-88186007D01*
X109177925Y-88071993D01*
X109194962Y-88008409D01*
X109827270Y-88640717D01*
X109827270Y-88640716D01*
X109866622Y-88586554D01*
X109891236Y-88538247D01*
X156302500Y-88538247D01*
X156302500Y-90277752D01*
X156314131Y-90336229D01*
X156314132Y-90336230D01*
X156358447Y-90402552D01*
X156424769Y-90446867D01*
X156424770Y-90446868D01*
X156483247Y-90458499D01*
X156483250Y-90458500D01*
X156483252Y-90458500D01*
X158222750Y-90458500D01*
X158222751Y-90458499D01*
X158237568Y-90455552D01*
X158281229Y-90446868D01*
X158281229Y-90446867D01*
X158281231Y-90446867D01*
X158347552Y-90402552D01*
X158391867Y-90336231D01*
X158391867Y-90336229D01*
X158391868Y-90336229D01*
X158403499Y-90277752D01*
X158403500Y-90277750D01*
X158403500Y-88538249D01*
X158403499Y-88538247D01*
X158391868Y-88479770D01*
X158391867Y-88479769D01*
X158347552Y-88413447D01*
X158281230Y-88369132D01*
X158281229Y-88369131D01*
X158222752Y-88357500D01*
X158222748Y-88357500D01*
X156483252Y-88357500D01*
X156483247Y-88357500D01*
X156424770Y-88369131D01*
X156424769Y-88369132D01*
X156358447Y-88413447D01*
X156314132Y-88479769D01*
X156314131Y-88479770D01*
X156302500Y-88538247D01*
X109891236Y-88538247D01*
X109923022Y-88475865D01*
X109963095Y-88397217D01*
X110028757Y-88195130D01*
X110028757Y-88195127D01*
X110062000Y-87985246D01*
X110062000Y-87772753D01*
X110028757Y-87562872D01*
X110028757Y-87562869D01*
X109963095Y-87360782D01*
X109866624Y-87171449D01*
X109827270Y-87117282D01*
X109827269Y-87117282D01*
X109194962Y-87749590D01*
X109177925Y-87686007D01*
X109112099Y-87571993D01*
X109019007Y-87478901D01*
X108904993Y-87413075D01*
X108841409Y-87396037D01*
X109472914Y-86764530D01*
X156302500Y-86764530D01*
X156302500Y-86971469D01*
X156342868Y-87174412D01*
X156342870Y-87174420D01*
X156422058Y-87365596D01*
X156537024Y-87537657D01*
X156683342Y-87683975D01*
X156683345Y-87683977D01*
X156855402Y-87798941D01*
X157046580Y-87878130D01*
X157249530Y-87918499D01*
X157249534Y-87918500D01*
X157249535Y-87918500D01*
X157456466Y-87918500D01*
X157456467Y-87918499D01*
X157659420Y-87878130D01*
X157850598Y-87798941D01*
X158022655Y-87683977D01*
X158168977Y-87537655D01*
X158283941Y-87365598D01*
X158363130Y-87174420D01*
X158403500Y-86971465D01*
X158403500Y-86764535D01*
X158363130Y-86561580D01*
X158283941Y-86370402D01*
X158168977Y-86198345D01*
X158168975Y-86198342D01*
X158022657Y-86052024D01*
X157936626Y-85994541D01*
X157850598Y-85937059D01*
X157659420Y-85857870D01*
X157659412Y-85857868D01*
X157456469Y-85817500D01*
X157456465Y-85817500D01*
X157249535Y-85817500D01*
X157249530Y-85817500D01*
X157046587Y-85857868D01*
X157046579Y-85857870D01*
X156855403Y-85937058D01*
X156683342Y-86052024D01*
X156537024Y-86198342D01*
X156422058Y-86370403D01*
X156342870Y-86561579D01*
X156342868Y-86561587D01*
X156302500Y-86764530D01*
X109472914Y-86764530D01*
X109473716Y-86763728D01*
X109419550Y-86724375D01*
X109225879Y-86625694D01*
X109226396Y-86624678D01*
X109176192Y-86584221D01*
X109154127Y-86517927D01*
X109171406Y-86450228D01*
X109222542Y-86402617D01*
X109278048Y-86389500D01*
X109581750Y-86389500D01*
X109581751Y-86389499D01*
X109596568Y-86386552D01*
X109640229Y-86377868D01*
X109640229Y-86377867D01*
X109640231Y-86377867D01*
X109706552Y-86333552D01*
X109750867Y-86267231D01*
X109750867Y-86267229D01*
X109750868Y-86267229D01*
X109762499Y-86208752D01*
X109762500Y-86208750D01*
X109762500Y-84469249D01*
X109762499Y-84469247D01*
X109750868Y-84410770D01*
X109750867Y-84410769D01*
X109706552Y-84344447D01*
X109640230Y-84300132D01*
X109640229Y-84300131D01*
X109581752Y-84288500D01*
X109581748Y-84288500D01*
X107842252Y-84288500D01*
X107842247Y-84288500D01*
X107783770Y-84300131D01*
X107783769Y-84300132D01*
X107717447Y-84344447D01*
X107673132Y-84410769D01*
X107673131Y-84410770D01*
X107661500Y-84469247D01*
X107661500Y-86208752D01*
X107673131Y-86267229D01*
X107673132Y-86267230D01*
X107717447Y-86333552D01*
X107783769Y-86377867D01*
X107783770Y-86377868D01*
X107842247Y-86389499D01*
X107842250Y-86389500D01*
X108145952Y-86389500D01*
X108212991Y-86409185D01*
X108258746Y-86461989D01*
X108268690Y-86531147D01*
X108239665Y-86594703D01*
X108197735Y-86624938D01*
X108198121Y-86625694D01*
X108004439Y-86724380D01*
X107950282Y-86763727D01*
X107950282Y-86763728D01*
X108582591Y-87396037D01*
X108519007Y-87413075D01*
X108404993Y-87478901D01*
X108311901Y-87571993D01*
X108246075Y-87686007D01*
X108229037Y-87749591D01*
X107596728Y-87117282D01*
X107596727Y-87117282D01*
X107557380Y-87171439D01*
X107460904Y-87360782D01*
X107395242Y-87562869D01*
X107395242Y-87562872D01*
X107362000Y-87772753D01*
X103506396Y-87772753D01*
X103622654Y-79634711D01*
X105083500Y-79634711D01*
X105083500Y-79877288D01*
X105115161Y-80117785D01*
X105177947Y-80352104D01*
X105186101Y-80371789D01*
X105270776Y-80576212D01*
X105392064Y-80786289D01*
X105392066Y-80786292D01*
X105392067Y-80786293D01*
X105539733Y-80978736D01*
X105539739Y-80978743D01*
X105711256Y-81150260D01*
X105711262Y-81150265D01*
X105903711Y-81297936D01*
X106113788Y-81419224D01*
X106337900Y-81512054D01*
X106572211Y-81574838D01*
X106752586Y-81598584D01*
X106812711Y-81606500D01*
X106812712Y-81606500D01*
X107055289Y-81606500D01*
X107103388Y-81600167D01*
X107295789Y-81574838D01*
X107530100Y-81512054D01*
X107754212Y-81419224D01*
X107964289Y-81297936D01*
X108156738Y-81150265D01*
X108328265Y-80978738D01*
X108475936Y-80786289D01*
X108597224Y-80576212D01*
X108690054Y-80352100D01*
X108752838Y-80117789D01*
X108782996Y-79888711D01*
X153851500Y-79888711D01*
X153851500Y-80131288D01*
X153883161Y-80371785D01*
X153945947Y-80606104D01*
X154020584Y-80786293D01*
X154038776Y-80830212D01*
X154160064Y-81040289D01*
X154160066Y-81040292D01*
X154160067Y-81040293D01*
X154307733Y-81232736D01*
X154307739Y-81232743D01*
X154479256Y-81404260D01*
X154479263Y-81404266D01*
X154592321Y-81491018D01*
X154671711Y-81551936D01*
X154881788Y-81673224D01*
X155105900Y-81766054D01*
X155340211Y-81828838D01*
X155520586Y-81852584D01*
X155580711Y-81860500D01*
X155580712Y-81860500D01*
X155823289Y-81860500D01*
X155871388Y-81854167D01*
X156063789Y-81828838D01*
X156298100Y-81766054D01*
X156522212Y-81673224D01*
X156732289Y-81551936D01*
X156924738Y-81404265D01*
X157096265Y-81232738D01*
X157243936Y-81040289D01*
X157365224Y-80830212D01*
X157458054Y-80606100D01*
X157520838Y-80371789D01*
X157552500Y-80131288D01*
X157552500Y-79888712D01*
X157520838Y-79648211D01*
X157458054Y-79413900D01*
X157365224Y-79189788D01*
X157243936Y-78979711D01*
X157096265Y-78787262D01*
X157096260Y-78787256D01*
X156924743Y-78615739D01*
X156924736Y-78615733D01*
X156732293Y-78468067D01*
X156732292Y-78468066D01*
X156732289Y-78468064D01*
X156546909Y-78361035D01*
X156522214Y-78346777D01*
X156522205Y-78346773D01*
X156298104Y-78253947D01*
X156063785Y-78191161D01*
X155823289Y-78159500D01*
X155823288Y-78159500D01*
X155580712Y-78159500D01*
X155580711Y-78159500D01*
X155340214Y-78191161D01*
X155105895Y-78253947D01*
X154881794Y-78346773D01*
X154881785Y-78346777D01*
X154671706Y-78468067D01*
X154479263Y-78615733D01*
X154479256Y-78615739D01*
X154307739Y-78787256D01*
X154307733Y-78787263D01*
X154160067Y-78979706D01*
X154038777Y-79189785D01*
X154038773Y-79189794D01*
X153945947Y-79413895D01*
X153883161Y-79648214D01*
X153851500Y-79888711D01*
X108782996Y-79888711D01*
X108784500Y-79877288D01*
X108784500Y-79634712D01*
X108780871Y-79607150D01*
X108771079Y-79532767D01*
X108752838Y-79394211D01*
X108690054Y-79159900D01*
X108597224Y-78935788D01*
X108475936Y-78725711D01*
X108391547Y-78615733D01*
X108328266Y-78533263D01*
X108328260Y-78533256D01*
X108156743Y-78361739D01*
X108156736Y-78361733D01*
X107964293Y-78214067D01*
X107964292Y-78214066D01*
X107964289Y-78214064D01*
X107754212Y-78092776D01*
X107754205Y-78092773D01*
X107530104Y-77999947D01*
X107295785Y-77937161D01*
X107055289Y-77905500D01*
X107055288Y-77905500D01*
X106812712Y-77905500D01*
X106812711Y-77905500D01*
X106572214Y-77937161D01*
X106337895Y-77999947D01*
X106113794Y-78092773D01*
X106113785Y-78092777D01*
X105903706Y-78214067D01*
X105711263Y-78361733D01*
X105711256Y-78361739D01*
X105539739Y-78533256D01*
X105539733Y-78533263D01*
X105392067Y-78725706D01*
X105270777Y-78935785D01*
X105270773Y-78935794D01*
X105177947Y-79159895D01*
X105115161Y-79394214D01*
X105083500Y-79634711D01*
X103622654Y-79634711D01*
X103622657Y-79634470D01*
X103625454Y-79613701D01*
X103625355Y-79613006D01*
X103625943Y-79609582D01*
X103625854Y-79609565D01*
X103626337Y-79607150D01*
X103626608Y-79605141D01*
X103627187Y-79602904D01*
X103627447Y-79601605D01*
X103627447Y-79601604D01*
X103627448Y-79601602D01*
X103631625Y-79538919D01*
X103632192Y-79532767D01*
X103646135Y-79413841D01*
X103669735Y-79212546D01*
X103671799Y-79200294D01*
X103680705Y-79159900D01*
X103740543Y-78888476D01*
X103743823Y-78876492D01*
X103813629Y-78663905D01*
X103843441Y-78573114D01*
X103847896Y-78561540D01*
X103977389Y-78269655D01*
X103982986Y-78258574D01*
X104008344Y-78214064D01*
X104141047Y-77981127D01*
X104147722Y-77970665D01*
X104332779Y-77710412D01*
X104340441Y-77700706D01*
X104550650Y-77460260D01*
X104559232Y-77451384D01*
X104792442Y-77233203D01*
X104801903Y-77225202D01*
X105055773Y-77031474D01*
X105065973Y-77024470D01*
X105337970Y-76857127D01*
X105348836Y-76851172D01*
X105636200Y-76711909D01*
X105647614Y-76707069D01*
X105947479Y-76597274D01*
X105959294Y-76593607D01*
X106268668Y-76514379D01*
X106280812Y-76511910D01*
X106596543Y-76464056D01*
X106608871Y-76462815D01*
X106930484Y-76446676D01*
X106937279Y-76446523D01*
X155626943Y-76700114D01*
G37*
%TD.AperFunction*%
%TD*%
M02*
