%TF.GenerationSoftware,KiCad,Pcbnew,10.0.1*%
%TF.CreationDate,2026-09-21T23:00:09+05:30*%
%TF.ProjectId,flight_computer_interface,666c6967-6874-45f6-936f-6d7075746572,rev?*%
%TF.SameCoordinates,Original*%
%TF.FileFunction,Legend,Top*%
%TF.FilePolarity,Positive*%
%FSLAX46Y46*%
G04 Gerber Fmt 4.6, Leading zero omitted, Abs format (unit mm)*
G04 Created by KiCad (PCBNEW 10.0.1) date 2026-09-21 23:00:09*
%MOMM*%
%LPD*%
G01*
G04 APERTURE LIST*
%ADD10C,0.150000*%
%ADD11C,0.120000*%
G04 APERTURE END LIST*
D10*
X105626819Y-88974333D02*
X106341104Y-88974333D01*
X106341104Y-88974333D02*
X106483961Y-89021952D01*
X106483961Y-89021952D02*
X106579200Y-89117190D01*
X106579200Y-89117190D02*
X106626819Y-89260047D01*
X106626819Y-89260047D02*
X106626819Y-89355285D01*
X106626819Y-87974333D02*
X106626819Y-88545761D01*
X106626819Y-88260047D02*
X105626819Y-88260047D01*
X105626819Y-88260047D02*
X105769676Y-88355285D01*
X105769676Y-88355285D02*
X105864914Y-88450523D01*
X105864914Y-88450523D02*
X105912533Y-88545761D01*
X129627333Y-85544819D02*
X129294000Y-85068628D01*
X129055905Y-85544819D02*
X129055905Y-84544819D01*
X129055905Y-84544819D02*
X129436857Y-84544819D01*
X129436857Y-84544819D02*
X129532095Y-84592438D01*
X129532095Y-84592438D02*
X129579714Y-84640057D01*
X129579714Y-84640057D02*
X129627333Y-84735295D01*
X129627333Y-84735295D02*
X129627333Y-84878152D01*
X129627333Y-84878152D02*
X129579714Y-84973390D01*
X129579714Y-84973390D02*
X129532095Y-85021009D01*
X129532095Y-85021009D02*
X129436857Y-85068628D01*
X129436857Y-85068628D02*
X129055905Y-85068628D01*
X129960667Y-84544819D02*
X130579714Y-84544819D01*
X130579714Y-84544819D02*
X130246381Y-84925771D01*
X130246381Y-84925771D02*
X130389238Y-84925771D01*
X130389238Y-84925771D02*
X130484476Y-84973390D01*
X130484476Y-84973390D02*
X130532095Y-85021009D01*
X130532095Y-85021009D02*
X130579714Y-85116247D01*
X130579714Y-85116247D02*
X130579714Y-85354342D01*
X130579714Y-85354342D02*
X130532095Y-85449580D01*
X130532095Y-85449580D02*
X130484476Y-85497200D01*
X130484476Y-85497200D02*
X130389238Y-85544819D01*
X130389238Y-85544819D02*
X130103524Y-85544819D01*
X130103524Y-85544819D02*
X130008286Y-85497200D01*
X130008286Y-85497200D02*
X129960667Y-85449580D01*
X120802095Y-76488819D02*
X120802095Y-77298342D01*
X120802095Y-77298342D02*
X120849714Y-77393580D01*
X120849714Y-77393580D02*
X120897333Y-77441200D01*
X120897333Y-77441200D02*
X120992571Y-77488819D01*
X120992571Y-77488819D02*
X121183047Y-77488819D01*
X121183047Y-77488819D02*
X121278285Y-77441200D01*
X121278285Y-77441200D02*
X121325904Y-77393580D01*
X121325904Y-77393580D02*
X121373523Y-77298342D01*
X121373523Y-77298342D02*
X121373523Y-76488819D01*
X121802095Y-76584057D02*
X121849714Y-76536438D01*
X121849714Y-76536438D02*
X121944952Y-76488819D01*
X121944952Y-76488819D02*
X122183047Y-76488819D01*
X122183047Y-76488819D02*
X122278285Y-76536438D01*
X122278285Y-76536438D02*
X122325904Y-76584057D01*
X122325904Y-76584057D02*
X122373523Y-76679295D01*
X122373523Y-76679295D02*
X122373523Y-76774533D01*
X122373523Y-76774533D02*
X122325904Y-76917390D01*
X122325904Y-76917390D02*
X121754476Y-77488819D01*
X121754476Y-77488819D02*
X122373523Y-77488819D01*
X135215333Y-78591580D02*
X135167714Y-78639200D01*
X135167714Y-78639200D02*
X135024857Y-78686819D01*
X135024857Y-78686819D02*
X134929619Y-78686819D01*
X134929619Y-78686819D02*
X134786762Y-78639200D01*
X134786762Y-78639200D02*
X134691524Y-78543961D01*
X134691524Y-78543961D02*
X134643905Y-78448723D01*
X134643905Y-78448723D02*
X134596286Y-78258247D01*
X134596286Y-78258247D02*
X134596286Y-78115390D01*
X134596286Y-78115390D02*
X134643905Y-77924914D01*
X134643905Y-77924914D02*
X134691524Y-77829676D01*
X134691524Y-77829676D02*
X134786762Y-77734438D01*
X134786762Y-77734438D02*
X134929619Y-77686819D01*
X134929619Y-77686819D02*
X135024857Y-77686819D01*
X135024857Y-77686819D02*
X135167714Y-77734438D01*
X135167714Y-77734438D02*
X135215333Y-77782057D01*
X135548667Y-77686819D02*
X136167714Y-77686819D01*
X136167714Y-77686819D02*
X135834381Y-78067771D01*
X135834381Y-78067771D02*
X135977238Y-78067771D01*
X135977238Y-78067771D02*
X136072476Y-78115390D01*
X136072476Y-78115390D02*
X136120095Y-78163009D01*
X136120095Y-78163009D02*
X136167714Y-78258247D01*
X136167714Y-78258247D02*
X136167714Y-78496342D01*
X136167714Y-78496342D02*
X136120095Y-78591580D01*
X136120095Y-78591580D02*
X136072476Y-78639200D01*
X136072476Y-78639200D02*
X135977238Y-78686819D01*
X135977238Y-78686819D02*
X135691524Y-78686819D01*
X135691524Y-78686819D02*
X135596286Y-78639200D01*
X135596286Y-78639200D02*
X135548667Y-78591580D01*
X141732095Y-96482819D02*
X141732095Y-97292342D01*
X141732095Y-97292342D02*
X141779714Y-97387580D01*
X141779714Y-97387580D02*
X141827333Y-97435200D01*
X141827333Y-97435200D02*
X141922571Y-97482819D01*
X141922571Y-97482819D02*
X142113047Y-97482819D01*
X142113047Y-97482819D02*
X142208285Y-97435200D01*
X142208285Y-97435200D02*
X142255904Y-97387580D01*
X142255904Y-97387580D02*
X142303523Y-97292342D01*
X142303523Y-97292342D02*
X142303523Y-96482819D01*
X143303523Y-97482819D02*
X142732095Y-97482819D01*
X143017809Y-97482819D02*
X143017809Y-96482819D01*
X143017809Y-96482819D02*
X142922571Y-96625676D01*
X142922571Y-96625676D02*
X142827333Y-96720914D01*
X142827333Y-96720914D02*
X142732095Y-96768533D01*
X123444095Y-91176819D02*
X123444095Y-91986342D01*
X123444095Y-91986342D02*
X123491714Y-92081580D01*
X123491714Y-92081580D02*
X123539333Y-92129200D01*
X123539333Y-92129200D02*
X123634571Y-92176819D01*
X123634571Y-92176819D02*
X123825047Y-92176819D01*
X123825047Y-92176819D02*
X123920285Y-92129200D01*
X123920285Y-92129200D02*
X123967904Y-92081580D01*
X123967904Y-92081580D02*
X124015523Y-91986342D01*
X124015523Y-91986342D02*
X124015523Y-91176819D01*
X124920285Y-91510152D02*
X124920285Y-92176819D01*
X124682190Y-91129200D02*
X124444095Y-91843485D01*
X124444095Y-91843485D02*
X125063142Y-91843485D01*
X139978333Y-79034819D02*
X139645000Y-78558628D01*
X139406905Y-79034819D02*
X139406905Y-78034819D01*
X139406905Y-78034819D02*
X139787857Y-78034819D01*
X139787857Y-78034819D02*
X139883095Y-78082438D01*
X139883095Y-78082438D02*
X139930714Y-78130057D01*
X139930714Y-78130057D02*
X139978333Y-78225295D01*
X139978333Y-78225295D02*
X139978333Y-78368152D01*
X139978333Y-78368152D02*
X139930714Y-78463390D01*
X139930714Y-78463390D02*
X139883095Y-78511009D01*
X139883095Y-78511009D02*
X139787857Y-78558628D01*
X139787857Y-78558628D02*
X139406905Y-78558628D01*
X140930714Y-79034819D02*
X140359286Y-79034819D01*
X140645000Y-79034819D02*
X140645000Y-78034819D01*
X140645000Y-78034819D02*
X140549762Y-78177676D01*
X140549762Y-78177676D02*
X140454524Y-78272914D01*
X140454524Y-78272914D02*
X140359286Y-78320533D01*
X149272666Y-96228819D02*
X149272666Y-96943104D01*
X149272666Y-96943104D02*
X149225047Y-97085961D01*
X149225047Y-97085961D02*
X149129809Y-97181200D01*
X149129809Y-97181200D02*
X148986952Y-97228819D01*
X148986952Y-97228819D02*
X148891714Y-97228819D01*
X149701238Y-96324057D02*
X149748857Y-96276438D01*
X149748857Y-96276438D02*
X149844095Y-96228819D01*
X149844095Y-96228819D02*
X150082190Y-96228819D01*
X150082190Y-96228819D02*
X150177428Y-96276438D01*
X150177428Y-96276438D02*
X150225047Y-96324057D01*
X150225047Y-96324057D02*
X150272666Y-96419295D01*
X150272666Y-96419295D02*
X150272666Y-96514533D01*
X150272666Y-96514533D02*
X150225047Y-96657390D01*
X150225047Y-96657390D02*
X149653619Y-97228819D01*
X149653619Y-97228819D02*
X150272666Y-97228819D01*
X157019666Y-91242819D02*
X157019666Y-91957104D01*
X157019666Y-91957104D02*
X156972047Y-92099961D01*
X156972047Y-92099961D02*
X156876809Y-92195200D01*
X156876809Y-92195200D02*
X156733952Y-92242819D01*
X156733952Y-92242819D02*
X156638714Y-92242819D01*
X157400619Y-91242819D02*
X158019666Y-91242819D01*
X158019666Y-91242819D02*
X157686333Y-91623771D01*
X157686333Y-91623771D02*
X157829190Y-91623771D01*
X157829190Y-91623771D02*
X157924428Y-91671390D01*
X157924428Y-91671390D02*
X157972047Y-91719009D01*
X157972047Y-91719009D02*
X158019666Y-91814247D01*
X158019666Y-91814247D02*
X158019666Y-92052342D01*
X158019666Y-92052342D02*
X157972047Y-92147580D01*
X157972047Y-92147580D02*
X157924428Y-92195200D01*
X157924428Y-92195200D02*
X157829190Y-92242819D01*
X157829190Y-92242819D02*
X157543476Y-92242819D01*
X157543476Y-92242819D02*
X157448238Y-92195200D01*
X157448238Y-92195200D02*
X157400619Y-92147580D01*
X124140333Y-93831580D02*
X124092714Y-93879200D01*
X124092714Y-93879200D02*
X123949857Y-93926819D01*
X123949857Y-93926819D02*
X123854619Y-93926819D01*
X123854619Y-93926819D02*
X123711762Y-93879200D01*
X123711762Y-93879200D02*
X123616524Y-93783961D01*
X123616524Y-93783961D02*
X123568905Y-93688723D01*
X123568905Y-93688723D02*
X123521286Y-93498247D01*
X123521286Y-93498247D02*
X123521286Y-93355390D01*
X123521286Y-93355390D02*
X123568905Y-93164914D01*
X123568905Y-93164914D02*
X123616524Y-93069676D01*
X123616524Y-93069676D02*
X123711762Y-92974438D01*
X123711762Y-92974438D02*
X123854619Y-92926819D01*
X123854619Y-92926819D02*
X123949857Y-92926819D01*
X123949857Y-92926819D02*
X124092714Y-92974438D01*
X124092714Y-92974438D02*
X124140333Y-93022057D01*
X125045095Y-92926819D02*
X124568905Y-92926819D01*
X124568905Y-92926819D02*
X124521286Y-93403009D01*
X124521286Y-93403009D02*
X124568905Y-93355390D01*
X124568905Y-93355390D02*
X124664143Y-93307771D01*
X124664143Y-93307771D02*
X124902238Y-93307771D01*
X124902238Y-93307771D02*
X124997476Y-93355390D01*
X124997476Y-93355390D02*
X125045095Y-93403009D01*
X125045095Y-93403009D02*
X125092714Y-93498247D01*
X125092714Y-93498247D02*
X125092714Y-93736342D01*
X125092714Y-93736342D02*
X125045095Y-93831580D01*
X125045095Y-93831580D02*
X124997476Y-93879200D01*
X124997476Y-93879200D02*
X124902238Y-93926819D01*
X124902238Y-93926819D02*
X124664143Y-93926819D01*
X124664143Y-93926819D02*
X124568905Y-93879200D01*
X124568905Y-93879200D02*
X124521286Y-93831580D01*
X153503333Y-84179580D02*
X153455714Y-84227200D01*
X153455714Y-84227200D02*
X153312857Y-84274819D01*
X153312857Y-84274819D02*
X153217619Y-84274819D01*
X153217619Y-84274819D02*
X153074762Y-84227200D01*
X153074762Y-84227200D02*
X152979524Y-84131961D01*
X152979524Y-84131961D02*
X152931905Y-84036723D01*
X152931905Y-84036723D02*
X152884286Y-83846247D01*
X152884286Y-83846247D02*
X152884286Y-83703390D01*
X152884286Y-83703390D02*
X152931905Y-83512914D01*
X152931905Y-83512914D02*
X152979524Y-83417676D01*
X152979524Y-83417676D02*
X153074762Y-83322438D01*
X153074762Y-83322438D02*
X153217619Y-83274819D01*
X153217619Y-83274819D02*
X153312857Y-83274819D01*
X153312857Y-83274819D02*
X153455714Y-83322438D01*
X153455714Y-83322438D02*
X153503333Y-83370057D01*
X154360476Y-83274819D02*
X154170000Y-83274819D01*
X154170000Y-83274819D02*
X154074762Y-83322438D01*
X154074762Y-83322438D02*
X154027143Y-83370057D01*
X154027143Y-83370057D02*
X153931905Y-83512914D01*
X153931905Y-83512914D02*
X153884286Y-83703390D01*
X153884286Y-83703390D02*
X153884286Y-84084342D01*
X153884286Y-84084342D02*
X153931905Y-84179580D01*
X153931905Y-84179580D02*
X153979524Y-84227200D01*
X153979524Y-84227200D02*
X154074762Y-84274819D01*
X154074762Y-84274819D02*
X154265238Y-84274819D01*
X154265238Y-84274819D02*
X154360476Y-84227200D01*
X154360476Y-84227200D02*
X154408095Y-84179580D01*
X154408095Y-84179580D02*
X154455714Y-84084342D01*
X154455714Y-84084342D02*
X154455714Y-83846247D01*
X154455714Y-83846247D02*
X154408095Y-83751009D01*
X154408095Y-83751009D02*
X154360476Y-83703390D01*
X154360476Y-83703390D02*
X154265238Y-83655771D01*
X154265238Y-83655771D02*
X154074762Y-83655771D01*
X154074762Y-83655771D02*
X153979524Y-83703390D01*
X153979524Y-83703390D02*
X153931905Y-83751009D01*
X153931905Y-83751009D02*
X153884286Y-83846247D01*
X129119333Y-80369580D02*
X129071714Y-80417200D01*
X129071714Y-80417200D02*
X128928857Y-80464819D01*
X128928857Y-80464819D02*
X128833619Y-80464819D01*
X128833619Y-80464819D02*
X128690762Y-80417200D01*
X128690762Y-80417200D02*
X128595524Y-80321961D01*
X128595524Y-80321961D02*
X128547905Y-80226723D01*
X128547905Y-80226723D02*
X128500286Y-80036247D01*
X128500286Y-80036247D02*
X128500286Y-79893390D01*
X128500286Y-79893390D02*
X128547905Y-79702914D01*
X128547905Y-79702914D02*
X128595524Y-79607676D01*
X128595524Y-79607676D02*
X128690762Y-79512438D01*
X128690762Y-79512438D02*
X128833619Y-79464819D01*
X128833619Y-79464819D02*
X128928857Y-79464819D01*
X128928857Y-79464819D02*
X129071714Y-79512438D01*
X129071714Y-79512438D02*
X129119333Y-79560057D01*
X129500286Y-79560057D02*
X129547905Y-79512438D01*
X129547905Y-79512438D02*
X129643143Y-79464819D01*
X129643143Y-79464819D02*
X129881238Y-79464819D01*
X129881238Y-79464819D02*
X129976476Y-79512438D01*
X129976476Y-79512438D02*
X130024095Y-79560057D01*
X130024095Y-79560057D02*
X130071714Y-79655295D01*
X130071714Y-79655295D02*
X130071714Y-79750533D01*
X130071714Y-79750533D02*
X130024095Y-79893390D01*
X130024095Y-79893390D02*
X129452667Y-80464819D01*
X129452667Y-80464819D02*
X130071714Y-80464819D01*
X113625333Y-82245580D02*
X113577714Y-82293200D01*
X113577714Y-82293200D02*
X113434857Y-82340819D01*
X113434857Y-82340819D02*
X113339619Y-82340819D01*
X113339619Y-82340819D02*
X113196762Y-82293200D01*
X113196762Y-82293200D02*
X113101524Y-82197961D01*
X113101524Y-82197961D02*
X113053905Y-82102723D01*
X113053905Y-82102723D02*
X113006286Y-81912247D01*
X113006286Y-81912247D02*
X113006286Y-81769390D01*
X113006286Y-81769390D02*
X113053905Y-81578914D01*
X113053905Y-81578914D02*
X113101524Y-81483676D01*
X113101524Y-81483676D02*
X113196762Y-81388438D01*
X113196762Y-81388438D02*
X113339619Y-81340819D01*
X113339619Y-81340819D02*
X113434857Y-81340819D01*
X113434857Y-81340819D02*
X113577714Y-81388438D01*
X113577714Y-81388438D02*
X113625333Y-81436057D01*
X114577714Y-82340819D02*
X114006286Y-82340819D01*
X114292000Y-82340819D02*
X114292000Y-81340819D01*
X114292000Y-81340819D02*
X114196762Y-81483676D01*
X114196762Y-81483676D02*
X114101524Y-81578914D01*
X114101524Y-81578914D02*
X114006286Y-81626533D01*
%TO.C,J1*%
D11*
X107332000Y-83959000D02*
X108712000Y-83959000D01*
X107332000Y-85339000D02*
X107332000Y-83959000D01*
X107332000Y-86609000D02*
X107332000Y-89259000D01*
X107332000Y-86609000D02*
X110092000Y-86609000D01*
X107332000Y-89259000D02*
X110092000Y-89259000D01*
X110092000Y-86609000D02*
X110092000Y-89259000D01*
%TO.C,R3*%
X127207742Y-85329500D02*
X127682258Y-85329500D01*
X127207742Y-86374500D02*
X127682258Y-86374500D01*
%TO.C,U2*%
X119714000Y-78124000D02*
X123474000Y-78124000D01*
X119714000Y-84944000D02*
X123474000Y-84944000D01*
X123474000Y-78124000D02*
X123474000Y-79384000D01*
X123474000Y-84944000D02*
X123474000Y-83684000D01*
X118434000Y-78224000D02*
X118194000Y-77894000D01*
X118674000Y-77894000D01*
X118434000Y-78224000D01*
G36*
X118434000Y-78224000D02*
G01*
X118194000Y-77894000D01*
X118674000Y-77894000D01*
X118434000Y-78224000D01*
G37*
%TO.C,C4*%
X134519580Y-96264000D02*
X134238420Y-96264000D01*
X134519580Y-97284000D02*
X134238420Y-97284000D01*
%TO.C,C3*%
X134212420Y-79246000D02*
X134493580Y-79246000D01*
X134212420Y-80266000D02*
X134493580Y-80266000D01*
%TO.C,U1*%
X132304000Y-82774000D02*
X133254000Y-82774000D01*
X132304000Y-83724000D02*
X132304000Y-82774000D01*
X132304000Y-92994000D02*
X132304000Y-92044000D01*
X133254000Y-92994000D02*
X132304000Y-92994000D01*
X141574000Y-82774000D02*
X142524000Y-82774000D01*
X142524000Y-82774000D02*
X142524000Y-83724000D01*
X142524000Y-92044000D02*
X142524000Y-92994000D01*
X142524000Y-92994000D02*
X141574000Y-92994000D01*
X131664000Y-83724000D02*
X131324000Y-83254000D01*
X132004000Y-83254000D01*
X131664000Y-83724000D01*
G36*
X131664000Y-83724000D02*
G01*
X131324000Y-83254000D01*
X132004000Y-83254000D01*
X131664000Y-83724000D01*
G37*
%TO.C,U4*%
X125322500Y-87762000D02*
X127142500Y-87762000D01*
X125322500Y-87837000D02*
X125322500Y-87762000D01*
X125322500Y-90882000D02*
X125322500Y-90807000D01*
X127142500Y-87762000D02*
X127142500Y-87837000D01*
X127142500Y-90807000D02*
X127142500Y-90882000D01*
X127142500Y-90882000D02*
X125322500Y-90882000D01*
X127922500Y-91142000D02*
X127442500Y-91142000D01*
X127682500Y-90812000D01*
X127922500Y-91142000D01*
G36*
X127922500Y-91142000D02*
G01*
X127442500Y-91142000D01*
X127682500Y-90812000D01*
X127922500Y-91142000D01*
G37*
%TO.C,R1*%
X139907742Y-79487500D02*
X140382258Y-79487500D01*
X139907742Y-80532500D02*
X140382258Y-80532500D01*
%TO.C,J2*%
X144543000Y-95614000D02*
X144543000Y-94234000D01*
X145923000Y-95614000D02*
X144543000Y-95614000D01*
X147193000Y-92854000D02*
X149843000Y-92854000D01*
X147193000Y-95614000D02*
X147193000Y-92854000D01*
X147193000Y-95614000D02*
X149843000Y-95614000D01*
X149843000Y-95614000D02*
X149843000Y-92854000D01*
%TO.C,J3*%
X155973000Y-88138000D02*
X155973000Y-85488000D01*
X158733000Y-85488000D02*
X155973000Y-85488000D01*
X158733000Y-88138000D02*
X155973000Y-88138000D01*
X158733000Y-88138000D02*
X158733000Y-85488000D01*
X158733000Y-89408000D02*
X158733000Y-90788000D01*
X158733000Y-90788000D02*
X157353000Y-90788000D01*
%TO.C,U3*%
X148816000Y-85705000D02*
X152936000Y-85705000D01*
X148816000Y-85800000D02*
X148816000Y-85705000D01*
X148816000Y-90825000D02*
X148816000Y-90730000D01*
X152936000Y-85705000D02*
X152936000Y-85800000D01*
X152936000Y-90730000D02*
X152936000Y-90825000D01*
X152936000Y-90825000D02*
X148816000Y-90825000D01*
X148276000Y-85795000D02*
X148036000Y-85465000D01*
X148516000Y-85465000D01*
X148276000Y-85795000D01*
G36*
X148276000Y-85795000D02*
G01*
X148036000Y-85465000D01*
X148516000Y-85465000D01*
X148276000Y-85795000D01*
G37*
%TO.C,C5*%
X126719420Y-92962000D02*
X127000580Y-92962000D01*
X126719420Y-93982000D02*
X127000580Y-93982000D01*
%TO.C,C6*%
X150989420Y-83310000D02*
X151270580Y-83310000D01*
X150989420Y-84330000D02*
X151270580Y-84330000D01*
%TO.C,C2*%
X128516748Y-81561000D02*
X129039252Y-81561000D01*
X128516748Y-83031000D02*
X129039252Y-83031000D01*
%TO.C,C1*%
X113530748Y-82831000D02*
X114053252Y-82831000D01*
X113530748Y-84301000D02*
X114053252Y-84301000D01*
%TD*%
M02*
